<?xml version="1.0" encoding="utf-8"?>
<!-- Generator: Adobe Illustrator 25.2.3, SVG Export Plug-In . SVG Version: 6.00 Build 0)  -->
<svg version="1.1" id="Layer_1" xmlns="http://www.w3.org/2000/svg" xmlns:xlink="http://www.w3.org/1999/xlink" x="0px" y="0px"
	 viewBox="0 0 512 101.4" style="enable-background:new 0 0 512 101.4;" xml:space="preserve">
<style type="text/css">
	.st0{fill:none;stroke:#000000;stroke-width:13;stroke-linecap:round;stroke-miterlimit:10;}
</style>
<path class="st0" d="M50.2,38.8l19.9,20c9.9,9.7,25.8,9.7,35.7,0l12.9-12.7c10-9.8,26-9.7,35.9,0.2L166.5,58
	c10.1,10.1,26.5,9.9,36.4-0.3l10-10.3c10-10.4,26.6-10.4,36.7-0.1l10.3,10.6c9.9,10.2,26.2,10.3,36.3,0.3l12.3-12.2
	c9.8-9.8,25.7-9.9,35.7-0.3l14.6,14.1c9.7,9.3,25,9.5,34.9,0.4l17.2-15.7c9.9-9,25.1-8.9,34.8,0.3l23.8,22.1"/>
</svg>
